<svg width="12" height="12" viewBox="0 0 12 12" fill="none" xmlns="http://www.w3.org/2000/svg">
<path d="M5.97001 9.60001C6.18001 9.60001 6.35751 9.52751 6.50251 9.38251C6.64751 9.23751 6.72001 9.06001 6.72001 8.85001C6.72001 8.64001 6.64751 8.46251 6.50251 8.31751C6.35751 8.17251 6.18001 8.10001 5.97001 8.10001C5.76 8.10001 5.5825 8.17251 5.4375 8.31751C5.2925 8.46251 5.22 8.64001 5.22 8.85001C5.22 9.06001 5.2925 9.23751 5.4375 9.38251C5.5825 9.52751 5.76 9.60001 5.97001 9.60001ZM5.43 7.29001H6.54001C6.54001 6.96001 6.57751 6.70001 6.65251 6.51001C6.72751 6.32001 6.94001 6.06001 7.29001 5.73C7.55001 5.47 7.75501 5.2225 7.90501 4.9875C8.05501 4.7525 8.13001 4.47 8.13001 4.14C8.13001 3.58 7.92501 3.15 7.51501 2.85C7.10501 2.55 6.62001 2.4 6.06001 2.4C5.49 2.4 5.0275 2.55 4.6725 2.85C4.3175 3.15 4.07 3.51 3.93 3.93L4.92 4.32C4.97 4.14 5.0825 3.945 5.2575 3.735C5.4325 3.525 5.70001 3.42 6.06001 3.42C6.38001 3.42 6.62001 3.5075 6.78001 3.6825C6.94001 3.8575 7.02001 4.05 7.02001 4.26C7.02001 4.46 6.96001 4.6475 6.84001 4.8225C6.72001 4.9975 6.57001 5.16 6.39001 5.31C5.95001 5.7 5.68001 5.99501 5.58001 6.19501C5.48 6.39501 5.43 6.76001 5.43 7.29001ZM6.00001 12C5.17 12 4.39 11.8425 3.66 11.5275C2.93 11.2125 2.295 10.785 1.755 10.245C1.215 9.70501 0.787501 9.07001 0.4725 8.34001C0.1575 7.61001 0 6.83001 0 6.00001C0 5.17 0.1575 4.39 0.4725 3.66C0.787501 2.93 1.215 2.295 1.755 1.755C2.295 1.215 2.93 0.787501 3.66 0.4725C4.39 0.1575 5.17 0 6.00001 0C6.83001 0 7.61001 0.1575 8.34001 0.4725C9.07001 0.787501 9.70501 1.215 10.245 1.755C10.785 2.295 11.2125 2.93 11.5275 3.66C11.8425 4.39 12 5.17 12 6.00001C12 6.83001 11.8425 7.61001 11.5275 8.34001C11.2125 9.07001 10.785 9.70501 10.245 10.245C9.70501 10.785 9.07001 11.2125 8.34001 11.5275C7.61001 11.8425 6.83001 12 6.00001 12ZM6.00001 10.8C7.34001 10.8 8.47501 10.335 9.40501 9.40501C10.335 8.47501 10.8 7.34001 10.8 6.00001C10.8 4.66 10.335 3.525 9.40501 2.595C8.47501 1.665 7.34001 1.2 6.00001 1.2C4.66 1.2 3.525 1.665 2.595 2.595C1.665 3.525 1.2 4.66 1.2 6.00001C1.2 7.34001 1.665 8.47501 2.595 9.40501C3.525 10.335 4.66 10.8 6.00001 10.8Z" fill="#334155"/>
</svg>
